<svg width="120" height="44" viewBox="0 0 120 44" fill="none" xmlns="http://www.w3.org/2000/svg">
<path d="M62.9375 25.0234C62.9375 24.8203 62.9062 24.638 62.8438 24.4766C62.7865 24.3099 62.6771 24.1589 62.5156 24.0234C62.3542 23.8828 62.1276 23.7448 61.8359 23.6094C61.5443 23.474 61.1667 23.3333 60.7031 23.1875C60.1875 23.0208 59.6979 22.8333 59.2344 22.625C58.776 22.4167 58.3698 22.1745 58.0156 21.8984C57.6667 21.6172 57.3906 21.2917 57.1875 20.9219C56.9896 20.5521 56.8906 20.1224 56.8906 19.6328C56.8906 19.1589 56.9948 18.7292 57.2031 18.3438C57.4115 17.9531 57.7031 17.6198 58.0781 17.3438C58.4531 17.0625 58.8958 16.8464 59.4062 16.6953C59.9219 16.5443 60.487 16.4688 61.1016 16.4688C61.9401 16.4688 62.6719 16.6198 63.2969 16.9219C63.9219 17.224 64.4062 17.638 64.75 18.1641C65.099 18.6901 65.2734 19.2917 65.2734 19.9688H62.9453C62.9453 19.6354 62.875 19.3438 62.7344 19.0938C62.599 18.8385 62.3906 18.638 62.1094 18.4922C61.8333 18.3464 61.4844 18.2734 61.0625 18.2734C60.6562 18.2734 60.3177 18.3359 60.0469 18.4609C59.776 18.5807 59.5729 18.7448 59.4375 18.9531C59.3021 19.1562 59.2344 19.3854 59.2344 19.6406C59.2344 19.8333 59.2812 20.0078 59.375 20.1641C59.474 20.3203 59.6198 20.4661 59.8125 20.6016C60.0052 20.737 60.2422 20.8646 60.5234 20.9844C60.8047 21.1042 61.1302 21.2214 61.5 21.3359C62.1198 21.5234 62.6641 21.7344 63.1328 21.9688C63.6068 22.2031 64.0026 22.4661 64.3203 22.7578C64.638 23.0495 64.8776 23.3802 65.0391 23.75C65.2005 24.1198 65.2812 24.5391 65.2812 25.0078C65.2812 25.5026 65.1849 25.9453 64.9922 26.3359C64.7995 26.7266 64.5208 27.0573 64.1562 27.3281C63.7917 27.599 63.3568 27.8047 62.8516 27.9453C62.3464 28.0859 61.7812 28.1562 61.1562 28.1562C60.5938 28.1562 60.0391 28.0833 59.4922 27.9375C58.9453 27.7865 58.4479 27.5599 58 27.2578C57.5573 26.9557 57.2031 26.5703 56.9375 26.1016C56.6719 25.6328 56.5391 25.0781 56.5391 24.4375H58.8906C58.8906 24.7917 58.9453 25.0911 59.0547 25.3359C59.1641 25.5807 59.3177 25.7786 59.5156 25.9297C59.7188 26.0807 59.9583 26.1901 60.2344 26.2578C60.5156 26.3255 60.8229 26.3594 61.1562 26.3594C61.5625 26.3594 61.8958 26.3021 62.1562 26.1875C62.4219 26.0729 62.6172 25.9141 62.7422 25.7109C62.8724 25.5078 62.9375 25.2786 62.9375 25.0234ZM69.1094 19.5469V28H66.8516V19.5469H69.1094ZM66.7109 17.3438C66.7109 17.0156 66.8255 16.7448 67.0547 16.5312C67.2839 16.3177 67.5911 16.2109 67.9766 16.2109C68.3568 16.2109 68.6615 16.3177 68.8906 16.5312C69.125 16.7448 69.2422 17.0156 69.2422 17.3438C69.2422 17.6719 69.125 17.9427 68.8906 18.1562C68.6615 18.3698 68.3568 18.4766 67.9766 18.4766C67.5911 18.4766 67.2839 18.3698 67.0547 18.1562C66.8255 17.9427 66.7109 17.6719 66.7109 17.3438ZM75.1094 19.5469V21.1406H70.1875V19.5469H75.1094ZM71.4062 17.4609H73.6562V25.4531C73.6562 25.6979 73.6875 25.8854 73.75 26.0156C73.8177 26.1458 73.9167 26.237 74.0469 26.2891C74.1771 26.3359 74.3411 26.3594 74.5391 26.3594C74.6797 26.3594 74.8047 26.3542 74.9141 26.3438C75.0286 26.3281 75.125 26.3125 75.2031 26.2969L75.2109 27.9531C75.0182 28.0156 74.8099 28.0651 74.5859 28.1016C74.362 28.138 74.1146 28.1562 73.8438 28.1562C73.349 28.1562 72.9167 28.0755 72.5469 27.9141C72.1823 27.7474 71.901 27.4818 71.7031 27.1172C71.5052 26.7526 71.4062 26.2734 71.4062 25.6797V17.4609ZM80.2812 28.1562C79.625 28.1562 79.0365 28.0521 78.5156 27.8438C77.9948 27.6302 77.5521 27.3359 77.1875 26.9609C76.8281 26.5859 76.5521 26.151 76.3594 25.6562C76.1667 25.1562 76.0703 24.625 76.0703 24.0625V23.75C76.0703 23.1094 76.1615 22.5234 76.3438 21.9922C76.526 21.4609 76.7865 21 77.125 20.6094C77.4688 20.2188 77.8854 19.9193 78.375 19.7109C78.8646 19.4974 79.4167 19.3906 80.0312 19.3906C80.6302 19.3906 81.1615 19.4896 81.625 19.6875C82.0885 19.8854 82.4766 20.1667 82.7891 20.5312C83.1068 20.8958 83.3464 21.3333 83.5078 21.8438C83.6693 22.349 83.75 22.9115 83.75 23.5312V24.4688H77.0312V22.9688H81.5391V22.7969C81.5391 22.4844 81.4818 22.2057 81.3672 21.9609C81.2578 21.7109 81.0911 21.513 80.8672 21.3672C80.6432 21.2214 80.3568 21.1484 80.0078 21.1484C79.7109 21.1484 79.4557 21.2135 79.2422 21.3438C79.0286 21.474 78.8542 21.6562 78.7188 21.8906C78.5885 22.125 78.4896 22.401 78.4219 22.7188C78.3594 23.0312 78.3281 23.375 78.3281 23.75V24.0625C78.3281 24.401 78.375 24.7135 78.4688 25C78.5677 25.2865 78.7057 25.5339 78.8828 25.7422C79.0651 25.9505 79.2839 26.112 79.5391 26.2266C79.7995 26.3411 80.0938 26.3984 80.4219 26.3984C80.8281 26.3984 81.2057 26.3203 81.5547 26.1641C81.9089 26.0026 82.2135 25.7604 82.4688 25.4375L83.5625 26.625C83.3854 26.8802 83.1432 27.125 82.8359 27.3594C82.5339 27.5938 82.1693 27.7865 81.7422 27.9375C81.3151 28.0833 80.8281 28.1562 80.2812 28.1562ZM89.7969 18.5703L86.7031 28H84.2109L88.4375 16.625H90.0234L89.7969 18.5703ZM92.3672 28L89.2656 18.5703L89.0156 16.625H90.6172L94.8672 28H92.3672ZM92.2266 23.7656V25.6016H86.2188V23.7656H92.2266ZM98.1562 16V28H95.8984V16H98.1562ZM103.906 28.1562C103.25 28.1562 102.661 28.0521 102.141 27.8438C101.62 27.6302 101.177 27.3359 100.812 26.9609C100.453 26.5859 100.177 26.151 99.9844 25.6562C99.7917 25.1562 99.6953 24.625 99.6953 24.0625V23.75C99.6953 23.1094 99.7865 22.5234 99.9688 21.9922C100.151 21.4609 100.411 21 100.75 20.6094C101.094 20.2188 101.51 19.9193 102 19.7109C102.49 19.4974 103.042 19.3906 103.656 19.3906C104.255 19.3906 104.786 19.4896 105.25 19.6875C105.714 19.8854 106.102 20.1667 106.414 20.5312C106.732 20.8958 106.971 21.3333 107.133 21.8438C107.294 22.349 107.375 22.9115 107.375 23.5312V24.4688H100.656V22.9688H105.164V22.7969C105.164 22.4844 105.107 22.2057 104.992 21.9609C104.883 21.7109 104.716 21.513 104.492 21.3672C104.268 21.2214 103.982 21.1484 103.633 21.1484C103.336 21.1484 103.081 21.2135 102.867 21.3438C102.654 21.474 102.479 21.6562 102.344 21.8906C102.214 22.125 102.115 22.401 102.047 22.7188C101.984 23.0312 101.953 23.375 101.953 23.75V24.0625C101.953 24.401 102 24.7135 102.094 25C102.193 25.2865 102.331 25.5339 102.508 25.7422C102.69 25.9505 102.909 26.112 103.164 26.2266C103.424 26.3411 103.719 26.3984 104.047 26.3984C104.453 26.3984 104.831 26.3203 105.18 26.1641C105.534 26.0026 105.839 25.7604 106.094 25.4375L107.188 26.625C107.01 26.8802 106.768 27.125 106.461 27.3594C106.159 27.5938 105.794 27.7865 105.367 27.9375C104.94 28.0833 104.453 28.1562 103.906 28.1562ZM110.906 21.3906V28H108.656V19.5469H110.773L110.906 21.3906ZM113.453 19.4922L113.414 21.5781C113.305 21.5625 113.172 21.5495 113.016 21.5391C112.865 21.5234 112.727 21.5156 112.602 21.5156C112.284 21.5156 112.008 21.5573 111.773 21.6406C111.544 21.7188 111.352 21.8359 111.195 21.9922C111.044 22.1484 110.93 22.3385 110.852 22.5625C110.779 22.7865 110.737 23.0417 110.727 23.3281L110.273 23.1875C110.273 22.6406 110.328 22.138 110.438 21.6797C110.547 21.2161 110.706 20.8125 110.914 20.4688C111.128 20.125 111.388 19.8594 111.695 19.6719C112.003 19.4844 112.354 19.3906 112.75 19.3906C112.875 19.3906 113.003 19.401 113.133 19.4219C113.263 19.4375 113.37 19.4609 113.453 19.4922ZM119.047 19.5469V21.1406H114.125V19.5469H119.047ZM115.344 17.4609H117.594V25.4531C117.594 25.6979 117.625 25.8854 117.688 26.0156C117.755 26.1458 117.854 26.237 117.984 26.2891C118.115 26.3359 118.279 26.3594 118.477 26.3594C118.617 26.3594 118.742 26.3542 118.852 26.3438C118.966 26.3281 119.062 26.3125 119.141 26.2969L119.148 27.9531C118.956 28.0156 118.747 28.0651 118.523 28.1016C118.299 28.138 118.052 28.1562 117.781 28.1562C117.286 28.1562 116.854 28.0755 116.484 27.9141C116.12 27.7474 115.839 27.4818 115.641 27.1172C115.443 26.7526 115.344 26.2734 115.344 25.6797V17.4609Z" fill="#1D1D1D"/>
<circle cx="22" cy="22" r="22" fill="#1D1D1D"/>
<path d="M22 11L30.6603 26.75H13.3397L22 11Z" fill="white"/>
</svg>
